<?xml version="1.0" standalone="no"?><!DOCTYPE svg PUBLIC "-//W3C//DTD SVG 1.1//EN" "http://www.w3.org/Graphics/SVG/1.1/DTD/svg11.dtd"><svg t="1680513174697" class="icon" viewBox="0 0 1024 1024" version="1.1" xmlns="http://www.w3.org/2000/svg" p-id="1022" xmlns:xlink="http://www.w3.org/1999/xlink" width="32" height="32"><path d="M229.376 805.376c-10.752 0-20.992-8.192-20.992-26.112v-143.36H136.192c-20.992 0-37.888-16.896-37.888-37.888V172.544c0-20.992 16.896-37.888 37.888-37.888h589.312c20.992 0 37.888 16.896 37.888 37.888v424.96c0 20.992-16.896 37.888-37.888 37.888h-286.72c-10.752 0-26.112 6.656-33.792 13.312l-156.16 147.456c-7.68 7.68-14.848 9.216-19.456 9.216z" fill="#1296db" p-id="1023"></path><path d="M784.384 930.816c-10.752 0-20.992-4.608-30.208-12.8l-121.856-112.64c-4.608-4.096-16.896-8.704-22.528-8.704H496.128c-16.384 0-29.696-13.312-29.696-29.696 0-16.384 13.312-29.696 29.696-29.696h112.64c20.992 0 47.616 10.752 62.976 24.576l90.112 82.944v-54.784c0-30.208 24.576-54.784 54.784-54.784h51.712V394.24h-58.88c-16.384 0-29.696-13.312-29.696-29.696 0-16.384 13.312-29.696 29.696-29.696h64c30.208 0 54.784 24.576 54.784 54.784v351.232c0 30.208-24.576 54.784-54.784 54.784h-51.712v92.672c0 18.432-8.704 33.28-23.552 39.936-3.584 1.536-9.216 2.56-13.824 2.56z" fill="#1296db" p-id="1024"></path></svg>